<?xml version="1.0" encoding="utf-8"?>
<!-- Generator: Adobe Illustrator 20.1.0, SVG Export Plug-In . SVG Version: 6.00 Build 0)  -->
<svg version="1.1" id="Livello_1" xmlns="http://www.w3.org/2000/svg" xmlns:xlink="http://www.w3.org/1999/xlink" x="0px" y="0px"
	 viewBox="0 0 133 133" style="enable-background:new 0 0 133 133;" xml:space="preserve">
<style type="text/css">
	.st0{fill:#F15A29;}
	.st1{fill:#F59C00;}
</style>
<g>
	<path class="st0" d="M66,10.2c31.1,0,56.3,25.2,56.3,56.3S97.1,122.8,66,122.8S10.2,97.1,10.2,66.5S35.4,10.2,66,10.2 M66,0.5
		c-35.9,0-65.5,29.6-65.5,66s29.6,66,66,66s66-29.6,66-66S102.4,0.5,66,0.5L66,0.5z"/>
</g>
<g>
	<g>
		<path class="st1" d="M91.9,108.2c-0.9,0.5-1.7,1-2.7,1.5c-0.9,0.5-1.8,0.9-2.8,1.3c-0.9,0.4-1.9,0.8-2.9,1.1c-1,0.3-2,0.6-3,0.9
			s-2,0.6-3,0.7c-1,0.2-2,0.4-3.1,0.5c-1,0.1-2.1,0.3-3.1,0.3c-1,0.1-2.1,0.1-3.1,0.2c-1,0-2.1,0-3.1,0s-2.1-0.1-3.1-0.2
			s-2.1-0.2-3.1-0.4c-1-0.2-2.1-0.4-3.1-0.6c-2.1-0.4-4.1-1-6.1-1.6c-1-0.3-2-0.7-3-1.1s-1.9-0.8-3-1.4l-2.1-1.1l0.8-2.5
			c0.1-0.2,0.2-0.7,0.3-1c0.1-0.4,0.2-0.8,0.3-1.2c0.2-0.8,0.4-1.6,0.5-2.4c0.2-0.8,0.3-1.6,0.4-2.4c0.1-0.8,0.2-1.7,0.3-2.5
			s0.1-1.7,0.2-2.5c0.1-0.8,0.1-1.7,0.2-2.5c0.1-0.8,0.1-1.7,0.1-2.5s0.1-1.7,0-2.5v-2.5c0-0.8-0.1-1.7-0.1-2.5s0-1.7-0.1-2.5
			l-0.2-2.5c-0.1-1.7-0.3-3.4-0.5-5.1l-0.6-5.1L43,64.6l0.8-0.6c0.5-0.4,0.9-0.6,1.4-0.8c0.4-0.2,0.9-0.4,1.4-0.6
			c0.9-0.4,1.9-0.7,2.8-0.9c1.9-0.4,3.9-0.6,5.8-0.4c0.5,0,0.9,0.1,1.4,0.2c0.5,0.1,0.9,0.2,1.4,0.3c0.9,0.2,1.8,0.6,2.6,0.9
			c0.9,0.4,1.7,0.8,2.5,1.3s1.5,1,2.2,1.6c-0.8-0.3-1.7-0.7-2.5-0.9c-0.8-0.3-1.7-0.5-2.5-0.7c-1.7-0.4-3.4-0.4-5.1-0.3
			c-1.7,0.1-3.3,0.5-4.8,1.1c-0.8,0.3-1.5,0.6-2.2,1.1c-0.3,0.2-0.7,0.4-1,0.6s-0.7,0.5-0.8,0.7l0.7-1.9c0.4,1.7,0.9,3.4,1.3,5.2
			l0.5,2.6c0.2,0.9,0.3,1.7,0.5,2.6l0.4,2.6c0.1,0.9,0.2,1.8,0.3,2.7c0.2,1.8,0.3,3.6,0.4,5.3c0.1,0.9,0.1,1.8,0.1,2.7
			c0,0.9,0,1.8,0,2.7c0,0.9,0,1.8-0.1,2.7c-0.1,0.9-0.1,1.8-0.2,2.7c-0.1,0.9-0.2,1.8-0.3,2.7c-0.1,0.9-0.3,1.8-0.4,2.7
			c-0.2,0.9-0.4,1.8-0.6,2.7c-0.1,0.5-0.2,0.9-0.4,1.4c-0.1,0.5-0.3,0.9-0.5,1.5l-1.4-3.6c0.7,0.4,1.6,0.8,2.4,1.2
			c0.9,0.4,1.8,0.7,2.6,1.1c1.8,0.7,3.6,1.3,5.5,1.8s3.7,1,5.6,1.3c1.9,0.4,3.8,0.6,5.7,0.8c1,0.1,1.9,0.2,2.9,0.2
			c1,0.1,1.9,0.1,2.9,0.1s2,0,2.9-0.1c1,0,2-0.1,2.9-0.2c1-0.1,2-0.2,2.9-0.4c1-0.2,2-0.3,2.9-0.5c1-0.2,1.9-0.4,2.9-0.6
			C89.9,108.7,90.9,108.4,91.9,108.2z"/>
	</g>
	<g>
		<path class="st1" d="M91.9,108.2c0,0-0.4-0.4-1-1.2c-0.3-0.4-0.7-0.9-1.1-1.5s-0.8-1.3-1.2-2c-0.8-1.5-1.6-3.3-2.1-5.4
			c-0.3-1-0.6-2.1-0.8-3.1c-0.2-1.1-0.4-2.2-0.5-3.3c-0.1-1.1-0.2-2.2-0.2-3.3c0-0.6,0-1.1,0-1.6s0-1.1,0.1-1.6
			c0.1-1.1,0.2-2.1,0.4-3c0.1-0.5,0.2-0.9,0.3-1.4c0.1-0.4,0.2-0.9,0.3-1.3c0.2-0.8,0.5-1.6,0.7-2.2s0.5-1.2,0.7-1.6
			c0.4-0.9,0.8-1.4,0.8-1.4s0.1,0.6,0.2,1.6c0,0.5,0.1,1.1,0.2,1.7c0.1,0.7,0.2,1.4,0.2,2.2c0.2,1.6,0.4,3.4,0.6,5.4
			c0.2,1.9,0.4,4,0.6,6.1c0.1,1,0.2,2.1,0.3,3.1c0.1,1,0.2,2,0.3,3c0.2,2,0.4,3.8,0.6,5.4c0.1,0.8,0.2,1.5,0.2,2.2
			c0.1,0.7,0.1,1.2,0.2,1.7C91.9,107.6,91.9,108.2,91.9,108.2z"/>
	</g>
	<g>
		<path class="st1" d="M45.1,71.9c0,0-0.2,0.3-0.6,0.8c-0.5,0.4-1.2,1.2-2.3,1.7c-1.1,0.6-2.7,1.1-4.6,1.1c-1.8,0-4-0.3-6.1-1.2
			c-2.1-0.9-4.2-2.3-6.1-4.2c-1.9-1.9-3.5-4.3-4.5-7.1c-1-2.8-1.5-6-1.2-9.1c0.1-0.8,0.2-1.6,0.3-2.3c0.2-0.9,0.4-1.6,0.6-2.4
			c0.5-1.5,1.1-3,2-4.4c1.6-2.8,3.8-5.2,6.4-7.1c2.6-1.8,5.5-3.1,8.5-3.7c3-0.6,6-0.3,8.6,0.4s4.9,1.9,6.7,3.3
			c1.8,1.4,3.2,2.9,4.3,4.3c1,1.5,1.7,2.9,2.2,4c0.5,1.2,0.6,2.1,0.7,2.8c0.1,0.6,0.1,1,0.1,1s-0.2-0.3-0.6-0.8
			c-0.4-0.5-1-1.2-1.7-2.1c-0.8-0.8-1.8-1.7-3.1-2.6c-1.2-0.9-2.7-1.7-4.4-2.4C47,40.6,42.8,40,39,41.2c-1.9,0.6-3.8,1.5-5.5,2.9
			c-1.7,1.3-3.1,3-4.3,4.8c-0.5,0.9-1.1,1.9-1.4,2.9c-0.2,0.5-0.4,1-0.5,1.4c-0.2,0.6-0.3,1.1-0.4,1.6c-0.3,2.1-0.3,4.2,0.2,6.2
			s1.3,3.9,2.4,5.5s2.4,3,3.9,4.1c1.4,1.1,2.9,1.8,4.3,2.2c1.4,0.4,2.7,0.5,3.8,0.3c1.1-0.1,2-0.4,2.5-0.7
			C44.8,72.1,45.1,71.9,45.1,71.9z"/>
	</g>
	<g>
		<path class="st1" d="M47.9,39.3c0,0-0.1-0.3-0.2-0.8c-0.2-0.5-0.3-1.3-0.4-2.4c0-1.1,0-2.4,0.3-3.9s0.9-3.2,1.8-4.9
			c0.9-1.7,2.2-3.4,3.8-5s3.7-3,6-4l0.9-0.4l0.2-0.1h0.1h0.1c0.1,0-0.1,0,0.2,0l0,0l0.4-0.1c0.5-0.2,1-0.3,1.7-0.5s1.4-0.3,2-0.4
			c0.7-0.1,1.3-0.1,2-0.2c2.7-0.1,5.4,0.2,7.9,0.9c2.5,0.8,5,1.9,7.2,3.3c1.1,0.7,2.1,1.5,3.1,2.3c0.5,0.4,0.9,0.9,1.4,1.3l0.4,0.4
			L87,25l0.5,0.6c1.7,1.9,2.8,3.9,3.8,5.8c0.9,2,1.6,3.9,2,5.7c0.9,3.6,0.9,6.7,0.7,8.7c-0.1,1-0.2,1.9-0.3,2.4
			c-0.1,0.5-0.2,0.8-0.2,0.8s-0.1-0.3-0.3-0.8c-0.2-0.5-0.5-1.3-0.8-2.2c-0.7-1.9-1.8-4.5-3.5-7.3c-0.8-1.4-1.8-2.8-2.9-4.2
			s-2.4-2.8-3.7-4L81.7,30l-0.3-0.3l0,0c-0.1-0.1,0.1,0.1,0.1,0.1l0,0l-0.1-0.1l-0.1-0.1c-0.4-0.3-0.7-0.6-1.1-0.8
			c-0.4-0.3-0.8-0.5-1.2-0.8c-0.4-0.3-0.8-0.5-1.2-0.7c-1.7-0.9-3.5-1.7-5.3-2.2c-1.8-0.6-3.7-0.8-5.6-0.9c-0.5,0-0.9,0-1.4,0
			s-0.9,0-1.3,0.1c-0.3,0-1,0.1-1.5,0.2l-0.4,0.1l0,0c0.3-0.1,0.1,0,0.1,0l0,0h-0.1h-0.2l-0.6,0.2c-3.4,0.9-6.3,2.9-8.5,5.1
			c-1.1,1.1-2,2.2-2.7,3.3c-0.7,1.1-1.2,2.1-1.6,3c-0.3,0.9-0.6,1.6-0.7,2.2C48,39,47.9,39.3,47.9,39.3z"/>
	</g>
	<g>
		<path class="st1" d="M90.5,36.3c0,0,0.3-0.2,0.7-0.5c0.5-0.3,1.3-0.7,2.3-1c1.1-0.3,2.4-0.6,4.1-0.5c1.6,0.1,3.5,0.5,5.3,1.4
			c1.9,0.9,3.7,2.2,5.3,4c1.6,1.8,2.9,3.9,3.8,6.3c0.9,2.4,1.5,5,1.6,7.6c0.1,1.3,0.1,2.6,0,4c0,0.7-0.1,1.3-0.2,2l-0.2,1l-0.1,0.5
			v0.2l-0.1,0.3c-0.1,0.5-0.3,1.5-0.5,2.1c-0.2,0.7-0.5,1.4-0.8,2c-0.6,1.3-1.3,2.6-2.1,3.7c-1.6,2.3-3.6,4.1-6,5.6
			c-2.4,1.4-4.9,2.1-7.2,2.4c-1.2,0.1-2.3,0.1-3.4,0.1c-0.6,0-1.1-0.1-1.6-0.2c-0.4-0.1-1-0.2-1.5-0.3c-1-0.3-1.9-0.6-2.7-0.9
			c-0.8-0.4-1.6-0.7-2.2-1.1c-1.3-0.8-2.4-1.6-3.2-2.4c-0.8-0.7-1.3-1.4-1.7-1.8c-0.4-0.5-0.5-0.7-0.5-0.7s0.3,0.1,0.8,0.3
			c0.5,0.2,1.3,0.5,2.3,0.8c1.9,0.6,4.7,1.2,7.9,1.1c0.4,0,0.8-0.1,1.2-0.1c0.4,0,0.8-0.1,1.2-0.2c0.8-0.1,1.6-0.3,2.4-0.6
			c1.6-0.5,3.2-1.3,4.5-2.4c1.2-0.9,2.5-2.4,3.5-4c0.5-0.8,0.9-1.6,1.3-2.4c0.2-0.4,0.3-0.8,0.5-1.3s0.2-0.6,0.4-1.3l0.3-1.5
			l0.2-1.5c0.1-1,0.2-2,0.2-3c0-2-0.2-3.9-0.6-5.8c-0.2-0.9-0.5-1.8-0.8-2.6s-0.7-1.6-1.1-2.4c-0.8-1.5-1.8-2.7-3-3.7
			c-1.1-1-2.3-1.7-3.5-2.2S95,36.5,94,36.4s-1.8-0.1-2.4-0.1C90.8,36.3,90.5,36.3,90.5,36.3z"/>
	</g>
	<g>
		<path class="st1" d="M48.2,94.5c0,0,0.1,0,0.2,0.1c0.1,0.1,0.3,0.2,0.6,0.4c0.5,0.3,1.3,0.8,2.3,1.3s2.1,1.1,3.4,1.7
			c1.3,0.6,2.7,1.2,4.1,1.6c0.7,0.3,1.4,0.5,2.1,0.7c0.7,0.2,1.4,0.4,2.1,0.6c0.7,0.2,1.4,0.3,2,0.5c0.6,0.1,1.3,0.3,1.8,0.3
			c0.6,0.1,1.1,0.2,1.6,0.2s0.9,0.1,1.2,0.1c0.7,0.1,1.1,0.1,1.1,0.1s-0.4,0.1-1.1,0.2c-0.3,0-0.7,0.1-1.2,0.2c-0.5,0-1,0.1-1.6,0.1
			c-0.6,0.1-1.2,0.1-1.9,0.1c-0.7,0-1.4,0-2.1,0c-0.7,0-1.5,0-2.3-0.1c-0.8,0-1.6-0.1-2.4-0.2c-1.6-0.1-3.2-0.4-4.6-0.7
			c-1.5-0.3-2.9-0.6-4-0.9c-1.2-0.3-2.2-0.6-2.8-0.8c-0.3-0.1-0.6-0.2-0.8-0.3c-0.2-0.1-0.3-0.1-0.3-0.1L48.2,94.5z"/>
	</g>
</g>
</svg>
