<?xml version="1.0" encoding="utf-8"?>
<!-- Generator: Adobe Illustrator 20.1.0, SVG Export Plug-In . SVG Version: 6.00 Build 0)  -->
<svg version="1.1" id="Livello_1" xmlns="http://www.w3.org/2000/svg" xmlns:xlink="http://www.w3.org/1999/xlink" x="0px" y="0px"
	 viewBox="0 0 204.5 82.2" style="enable-background:new 0 0 204.5 82.2;" xml:space="preserve">
<style type="text/css">
	.st0{fill:#F15A29;}
</style>
<g>
	<path class="st0" d="M39.6,11c16.6,0,30,13.5,30,30s-13.5,30-30,30S9.8,57.4,9.8,41.1S23.3,11,39.6,11 M39.6,5.9
		c-19.2,0-35,15.8-35,35.2s15.8,35.2,35.2,35.2s35.2-15.8,35.2-35.2S59,5.9,39.6,5.9L39.6,5.9z"/>
</g>
<g>
	<g>
		<path class="st0" d="M90.1,30.3v11.8h-4.4V13.1h5c2.4,0,4.3,0.2,5.5,0.5c1.3,0.3,2.4,1,3.3,1.9c1.7,1.6,2.5,3.7,2.5,6.2
			c0,2.7-0.9,4.8-2.7,6.3c-1.8,1.6-4.2,2.3-7.2,2.3H90.1z M90.1,26.3h1.6c4,0,6.1-1.6,6.1-4.7c0-3-2.1-4.5-6.2-4.5h-1.5V26.3z"/>
		<path class="st0" d="M121.5,35.1h-12.5l-3.2,7.1h-4.7l14.4-30.9l13.9,30.9h-4.8L121.5,35.1z M119.7,31l-4.3-9.9l-4.5,9.9H119.7z"
			/>
		<path class="st0" d="M149.5,17.4l-3.6,2.1c-0.7-1.2-1.3-1.9-1.9-2.3c-0.6-0.4-1.4-0.6-2.4-0.6c-1.2,0-2.2,0.3-3,1
			c-0.8,0.7-1.2,1.5-1.2,2.6c0,1.4,1.1,2.6,3.2,3.4l2.9,1.2c2.4,1,4.1,2.1,5.2,3.5c1.1,1.4,1.6,3.1,1.6,5.1c0,2.7-0.9,4.9-2.7,6.6
			c-1.8,1.8-4,2.6-6.7,2.6c-2.5,0-4.6-0.7-6.3-2.2c-1.6-1.5-2.6-3.6-3-6.3l4.5-1c0.2,1.7,0.6,2.9,1.1,3.5c0.9,1.3,2.2,1.9,4,1.9
			c1.4,0,2.5-0.5,3.4-1.4s1.4-2.1,1.4-3.5c0-0.6-0.1-1.1-0.2-1.6c-0.2-0.5-0.4-0.9-0.7-1.3c-0.3-0.4-0.8-0.8-1.3-1.1s-1.2-0.7-1.9-1
			l-2.8-1.2c-4-1.7-6-4.1-6-7.4c0-2.2,0.8-4,2.5-5.5c1.7-1.5,3.8-2.2,6.2-2.2C145,12.5,147.6,14.1,149.5,17.4z"/>
		<path class="st0" d="M164.1,17.2v25h-4.4v-25H153v-4.1h17.8v4.1H164.1z"/>
		<path class="st0" d="M190.3,35.1h-12.5l-3.2,7.1h-4.7l14.4-30.9l13.9,30.9h-4.8L190.3,35.1z M188.5,31l-4.3-9.9l-4.5,9.9H188.5z"
			/>
	</g>
	<g>
		<path d="M97,50.9l-1,0.8c-1.1-1.8-2.7-2.7-4.6-2.7c-1.2,0-2.2,0.4-3,1.3s-1.2,1.9-1.2,3.1c0,0.6,0.1,1.1,0.3,1.5
			c0.2,0.4,0.6,0.8,1.1,1.2c0.5,0.4,0.9,0.6,1.2,0.8c0.3,0.2,0.8,0.4,1.5,0.7l4.3,2.3c1.7,1.1,2.6,2.6,2.6,4.5
			c0,1.8-0.7,3.4-2.1,4.7c-1.4,1.3-3.1,1.9-5,1.9c-1.5,0-2.9-0.4-4.1-1.3c-1.2-0.9-2-2.1-2.6-3.5l1.3-0.6c1.1,2.7,2.9,4.1,5.5,4.1
			c1.5,0,2.8-0.5,3.9-1.6c1.1-1,1.7-2.3,1.7-3.8c0-0.5-0.1-0.9-0.3-1.3s-0.4-0.7-0.6-1c-0.2-0.3-0.6-0.5-1-0.9
			c-0.5-0.3-0.8-0.5-1-0.6c-0.2-0.1-0.6-0.3-1.2-0.6c-0.2-0.1-0.3-0.2-0.4-0.2L88,57.5c-1.6-1-2.3-2.3-2.3-4.1
			c0-1.7,0.5-3.1,1.6-4.1c1.1-1.1,2.5-1.6,4.2-1.6c1.1,0,2.2,0.3,3.2,0.9C95.7,49.1,96.5,49.9,97,50.9z"/>
		<path d="M106.9,49.3v21.3h-1.4V49.3h-5.9V48h13.2v1.4H106.9z"/>
		<path d="M129.1,61.7V48h1.4v14.1c0,1,0,1.8,0,2.3c0,0.5-0.2,1.2-0.4,1.9c-0.2,0.7-0.6,1.4-1.1,2c-0.7,0.9-1.7,1.5-2.8,2
			s-2.2,0.7-3.4,0.7s-2.3-0.2-3.4-0.7s-2-1.1-2.8-2c-0.5-0.6-0.8-1.3-1.1-2c-0.2-0.7-0.4-1.4-0.4-1.9c0-0.5,0-1.3,0-2.3V48h1.4v13.7
			c0,0.9,0,1.6,0,2.1c0,0.5,0.1,1.1,0.3,1.8c0.2,0.7,0.5,1.3,0.8,1.8c0.5,0.7,1.3,1.2,2.2,1.6s1.9,0.6,2.9,0.6s1.9-0.2,2.9-0.6
			c1-0.4,1.7-0.9,2.2-1.6c0.4-0.5,0.6-1,0.8-1.8c0.2-0.7,0.3-1.3,0.3-1.8C129.1,63.3,129.1,62.6,129.1,61.7z"/>
		<path d="M135.2,70.6V48h4.1c1.8,0,3.4,0.2,4.7,0.6c1.3,0.4,2.6,1.2,3.7,2.2c2.4,2.2,3.6,5.1,3.6,8.5c0,3.3-1.2,6.1-3.5,8.3
			c-1.2,1.1-2.4,1.9-3.8,2.4c-1.3,0.4-2.9,0.6-4.8,0.6H135.2z M136.7,69.3h2.6c3.2,0,5.8-0.9,7.6-2.7c2-2,3-4.4,3-7.2
			c0-3-1.1-5.5-3.3-7.5c-1-0.9-2.1-1.6-3.3-1.9c-1.2-0.4-2.5-0.5-4-0.5h-2.6V69.3z"/>
		<path d="M156.3,48v22.7h-1.4V48H156.3z"/>
		<path d="M171.6,47.7c3.2,0,5.9,1.1,8.3,3.4c2.3,2.3,3.5,5,3.5,8.2c0,3.2-1.2,5.9-3.5,8.2c-2.3,2.3-5.1,3.4-8.3,3.4
			s-5.9-1.1-8.3-3.4c-2.3-2.3-3.5-5-3.5-8.2c0-3.2,1.2-5.9,3.5-8.2S168.3,47.7,171.6,47.7z M171.6,49c-2.8,0-5.3,1-7.3,3
			c-2,2-3,4.4-3,7.2c0,2.8,1,5.2,3,7.2c2,2,4.5,3,7.3,3c2.8,0,5.2-1,7.3-3.1c2-2,3.1-4.4,3.1-7.2c0-2.8-1-5.2-3.1-7.2
			C176.8,50,174.4,49,171.6,49z"/>
		<path d="M198.3,50.9l-1,0.8c-1.1-1.8-2.7-2.7-4.6-2.7c-1.2,0-2.2,0.4-3,1.3s-1.2,1.9-1.2,3.1c0,0.6,0.1,1.1,0.3,1.5
			c0.2,0.4,0.6,0.8,1.1,1.2c0.5,0.4,0.9,0.6,1.2,0.8c0.3,0.2,0.8,0.4,1.5,0.7l4.3,2.3c1.7,1.1,2.6,2.6,2.6,4.5
			c0,1.8-0.7,3.4-2.1,4.7c-1.4,1.3-3.1,1.9-5,1.9c-1.5,0-2.9-0.4-4.1-1.3c-1.2-0.9-2-2.1-2.6-3.5l1.3-0.6c1.1,2.7,2.9,4.1,5.5,4.1
			c1.5,0,2.8-0.5,3.9-1.6c1.1-1,1.7-2.3,1.7-3.8c0-0.5-0.1-0.9-0.3-1.3s-0.4-0.7-0.6-1c-0.2-0.3-0.6-0.5-1-0.9
			c-0.5-0.3-0.8-0.5-1-0.6c-0.2-0.1-0.6-0.3-1.2-0.6c-0.2-0.1-0.3-0.2-0.4-0.2l-4.1-2.2c-1.6-1-2.3-2.3-2.3-4.1
			c0-1.7,0.5-3.1,1.6-4.1c1.1-1.1,2.5-1.6,4.2-1.6c1.1,0,2.2,0.3,3.2,0.9C197,49.1,197.8,49.9,198.3,50.9z"/>
	</g>
</g>
</svg>
