<?xml version="1.0" encoding="utf-8"?>
<!-- Generator: Adobe Illustrator 20.1.0, SVG Export Plug-In . SVG Version: 6.00 Build 0)  -->
<svg version="1.1" id="Livello_1" xmlns="http://www.w3.org/2000/svg" xmlns:xlink="http://www.w3.org/1999/xlink" x="0px" y="0px"
	 viewBox="0 0 133 133" style="enable-background:new 0 0 133 133;" xml:space="preserve">
<style type="text/css">
	.st0{fill:#F9B233;}
	.st1{fill:#F15A29;}
</style>
<g>
	<ellipse class="st0" cx="53.1" cy="102.3" rx="7.5" ry="7.8"/>
	<ellipse class="st0" cx="85.7" cy="102.3" rx="7.5" ry="7.8"/>
	<path class="st0" d="M104.7,51.6c-9.5,0-45.9,0-45.9,0S56,52.2,56,55.4c0,3.2,2.8,4,2.8,4H100l-2.3,8.2c-11.3,0-40.5,0-40.5,0
		s-2.6,0.6-2.6,3.5c0,3,2.6,3.8,2.6,3.8h38.4h0.1l-2.1,7.7H51.6l-2.8-23.2l-1-7.8c0,0-0.8-7.3-1.2-10.2c-0.5-3-4-3-19.3-10.6
		c-3.6-1.6-6.6,5.4,0,9l12.1,5.9c0,0-0.8-2.1-0.6,0.3c0.2,2.3,5.2,40.6,5.2,40.6s0.2,5.4,4.8,5.4s42.4,0,46.2,0s4.6-4.2,4.6-4.2
		l9.2-28.6C108.8,59.1,111.5,51.6,104.7,51.6z"/>
</g>
<g>
	<path class="st1" d="M66,10.2c31.1,0,56.3,25.2,56.3,56.3S97.1,122.8,66,122.8S10.2,97.1,10.2,66.5S35.4,10.2,66,10.2 M66,0.5
		c-35.9,0-65.5,29.6-65.5,66s29.6,66,66,66s66-29.6,66-66S102.4,0.5,66,0.5L66,0.5z"/>
</g>
</svg>
