<?xml version="1.0" encoding="utf-8"?>
<!-- Generator: Adobe Illustrator 20.1.0, SVG Export Plug-In . SVG Version: 6.00 Build 0)  -->
<svg version="1.1" id="Livello_1" xmlns="http://www.w3.org/2000/svg" xmlns:xlink="http://www.w3.org/1999/xlink" x="0px" y="0px"
	 viewBox="0 0 133 133" style="enable-background:new 0 0 133 133;" xml:space="preserve">
<style type="text/css">
	.st0{fill:#F15A29;}
	.st1{fill:#F59C00;}
</style>
<g>
	<path class="st0" d="M66,10.2c31.1,0,56.3,25.2,56.3,56.3S97.1,122.8,66,122.8S10.2,97.1,10.2,66.5S35.4,10.2,66,10.2 M66,0.5
		c-35.9,0-65.5,29.6-65.5,66s29.6,66,66,66s66-29.6,66-66S102.4,0.5,66,0.5L66,0.5z"/>
</g>
<g>
	<path class="st1" d="M92.8,77.4c0,3.9-0.3,8.1-1,12.3c-0.2,0.9-0.8,1.4-1.6,1.3c-0.8-0.1-1.3-0.9-1.2-1.8
		c1.2-7.3,1.3-14.7,0.3-22.1c-0.4-2.9-0.7-5.9-1.9-8.7c-3.2-7.8-9-12.7-17.3-14c-11.9-2-22.8,5.7-25.4,17.5
		c-0.7,3.2-0.6,6.3,0.1,9.5c0.6,2.9,0.7,5.9,0.4,8.8c-0.1,0.9-0.7,1.5-1.6,1.4c-0.8-0.1-1.3-0.7-1.2-1.6c0.3-3,0-6-0.5-9
		c-1.4-7.6,0.4-14.4,5.2-20.4c5.3-6.5,12.3-9.6,20.7-9.3c11.4,0.4,21.2,8.9,23.5,20.1C92.2,66.6,92.7,71.9,92.8,77.4z"/>
	<path class="st1" d="M103.6,63.7c0,1-0.5,1.7-1.3,1.7c-0.8,0.1-1.4-0.4-1.6-1.3c-0.4-2.1-0.7-4.2-1.2-6.2
		c-3.3-12.9-14-22.8-27-25.1c-14.1-2.5-28.1,3.8-35.5,16.1c-2.1,3.5-3.6,7.4-4.3,11.4c-0.2,0.9-0.6,1.4-1.4,1.4
		c-1,0.1-1.7-0.7-1.5-1.7c1.2-6.8,4.1-12.8,8.6-18c2.7-3.1,5.8-5.7,9.3-7.7c4.8-2.7,9.9-4.4,15.4-4.8c12.1-0.9,22.3,3.1,30.6,11.9
		c5,5.3,8,11.7,9.3,18.9C103.3,61.6,103.5,62.8,103.6,63.7z"/>
	<path class="st1" d="M66.6,23.4c1.8,0.1,3.7,0.3,5.5,0.5c0.9,0.1,1.5,0.7,1.4,1.6c-0.1,0.8-0.7,1.3-1.7,1.2
		c-2.2-0.1-4.3-0.4-6.5-0.3c-12.8,0.6-23.2,5.9-31,16.1C30.2,48,27.7,54.2,26.7,61c-0.6,4.5-0.4,9,0.4,13.5
		c0.8,4.4-0.3,8.3-3.2,11.6c-0.6,0.7-1.5,0.7-2.1,0.1c-0.6-0.5-0.6-1.4,0-2c2.1-2.4,3-5.1,2.7-8.2c-0.1-1.4-0.5-2.8-0.7-4.2
		c-0.6-4.4-0.5-8.9,0.4-13.3c1.8-9.2,6.1-17,12.8-23.4c6.2-5.8,13.5-9.4,21.8-11C61.4,23.7,64,23.5,66.6,23.4z"/>
	<path class="st1" d="M74.9,77.1c-0.1,13.9-4.4,26.3-12.8,37.3c-0.5,0.7-1.2,0.9-1.9,0.5c-0.6-0.3-0.9-1-0.7-1.6
		c0.1-0.3,0.2-0.5,0.4-0.7c5.2-6.8,8.8-14.3,10.7-22.7c1.5-6.8,1.9-13.6,0.9-20.5c-0.2-1.3-0.4-2.6-0.7-3.9
		c-0.5-2.3-2.6-3.8-4.9-3.6c-2.3,0.2-4.2,2.2-4.1,4.5c0,1.1,0.4,2.2,0.5,3.3c0.9,5.9,0.7,11.7-0.5,17.5c-0.2,0.8-0.9,1.3-1.7,1.2
		c-0.8-0.2-1.3-0.9-1.1-1.8c0.6-2.9,1-5.9,1-8.9c0-3.3-0.3-6.6-0.9-9.8c-0.9-4.6,2.5-8.8,7.2-8.8c3.4,0,6.5,2.4,7.2,5.8
		C74.5,68.9,74.9,73,74.9,77.1z"/>
	<path class="st1" d="M107.7,77.1c0-7-0.6-13.9-2.3-20.7c-1.4-5.8-4.1-11-8-15.6c-5-5.9-11.1-10.1-18.5-12.5
		c-1.1-0.3-1.5-1.4-0.9-2.2c0.4-0.6,1-0.8,1.8-0.5c4.1,1.4,8,3.3,11.6,5.8c8.7,6.3,14.4,14.7,17,25.1c1,4.1,1.5,8.3,1.9,12.5
		c0.4,4.4,0.5,8.7,0.2,13.1c-0.1,2.3-0.4,4.6-0.6,6.9c-0.1,0.8-0.8,1.3-1.5,1.2c-0.8-0.1-1.3-0.8-1.3-1.6c0.2-3,0.5-6,0.7-9
		C107.7,78.8,107.7,78,107.7,77.1z"/>
	<path class="st1" d="M66.4,47.3c0.5,0,1,0,1.5,0c0.9,0.1,1.5,0.7,1.4,1.5c0,0.8-0.7,1.4-1.6,1.3c-2.8-0.2-5.5,0.2-8,1.4
		c-5.6,2.7-8.7,7.1-9.6,13.2c-0.3,2.1,0.1,4.2,0.5,6.2c0.5,2.8,0.6,5.6,0.4,8.4c-0.4,6.8-2.6,13-6.4,18.7c-1.8,2.6-3.8,4.9-6.2,7
		c-0.7,0.6-1.6,0.6-2.1,0c-0.5-0.6-0.4-1.5,0.2-2.1c5.9-5.2,9.6-11.7,11.1-19.5c0.9-4.5,0.8-8.9-0.1-13.4
		c-1.8-8.8,3.1-17.8,11.4-21.3C61.3,47.8,63.8,47.3,66.4,47.3z"/>
	<path class="st1" d="M86.8,78.7c-0.1,11.5-3.3,23.7-9.9,35c-0.4,0.7-0.9,1-1.5,0.9c-0.6-0.1-1.1-0.5-1.2-1.1c0-0.3,0-0.7,0.2-1
		c1.7-2.9,3.2-5.9,4.4-9c1.3-3.1,2.3-6.3,3.1-9.6c1.9-7.8,2.5-15.7,1.6-23.7c-0.3-2.6-0.6-5.2-1.3-7.8c-1.1-4.4-3.7-7.7-7.7-10
		c-0.6-0.3-1-0.8-0.9-1.5c0.1-1.1,1.2-1.6,2.2-1.1c2.3,1.3,4.2,2.9,5.8,5c2,2.6,3.2,5.5,3.8,8.6C86.3,67.9,86.8,72.5,86.8,78.7z"/>
	<path class="st1" d="M62.9,17.6c10.4-0.2,17.6,1.4,24.5,4.6c0.2,0.1,0.4,0.2,0.6,0.3c0.8,0.4,1.1,1.2,0.7,2c-0.4,0.7-1.2,0.9-2,0.6
		c-1.4-0.6-2.8-1.2-4.2-1.8c-4.9-1.9-9.9-2.8-15.1-2.9c-10.8-0.1-20.5,3.1-29,9.6c-3.4,2.6-6.4,5.7-9,9.2c-0.4,0.5-0.9,0.8-1.6,0.7
		c-0.6-0.1-1-0.6-1-1.2c0-0.4,0.1-0.8,0.3-1.1C31.9,31,37.9,26,45.2,22.5C51.7,19.3,58.6,17.7,62.9,17.6z"/>
	<path class="st1" d="M98.7,75c0,12.4-1.8,22.3-5.5,31.9c-0.4,0.9-1,1.3-1.8,1.1c-0.9-0.3-1.2-1.1-0.9-2.1c0.9-2.6,1.8-5.2,2.5-7.9
		c1.3-4.6,2.1-9.2,2.5-13.9c0.7-8,0.2-16-1.4-23.9c-0.8-3.8-2.4-7.2-4.6-10.3c-0.5-0.8-0.5-1.6,0.1-2.1c0.7-0.6,1.6-0.4,2.2,0.4
		c1.4,2,2.6,4.1,3.5,6.3c1.2,3,1.9,6.1,2.4,9.2C98.3,68.2,98.7,72.7,98.7,75z"/>
	<path class="st1" d="M36.6,76.7c-0.2-1.6-0.5-3.5-0.8-5.4c-1-6.6,0-12.8,2.9-18.8c1.9-3.9,4.6-7.2,7.9-9.9c0.3-0.3,0.8-0.5,1.2-0.5
		c0.6-0.1,1.1,0.4,1.3,0.9c0.2,0.6,0,1.2-0.5,1.6c-0.8,0.7-1.5,1.3-2.2,2c-5.4,5.6-8.1,12.2-8.2,20c0,2.1,0.4,4.2,0.7,6.3
		c1.3,8.4-1,15.7-6.9,21.8c-0.6,0.7-1.3,1.3-2,1.9c-0.7,0.6-1.6,0.6-2.1-0.1c-0.6-0.7-0.4-1.5,0.3-2.1c4.3-3.6,7-8.2,8-13.7
		C36.3,79.5,36.4,78.3,36.6,76.7z"/>
	<path class="st1" d="M69,76.6c-0.2,14.3-4.7,26.3-13.6,36.6c-0.4,0.5-1,0.8-1.6,0.5c-0.6-0.2-1-0.6-1-1.2c0-0.4,0.2-0.9,0.5-1.2
		c2.1-2.4,4-5,5.6-7.8c3.4-5.8,5.7-12.1,6.7-18.7c0.9-5.9,0.7-11.8-0.4-17.7c-0.2-1,0-1.5,0.7-1.8c0.8-0.4,1.8-0.1,2,0.8
		c0.3,1.8,0.7,3.5,0.9,5.3C68.9,73.3,69,75.2,69,76.6z"/>
	<path class="st1" d="M115.4,65.2c0,0.7,0,1.4,0,2.2c0,0.9-0.6,1.5-1.4,1.5c-0.8,0-1.4-0.6-1.4-1.5c0-3-0.2-5.9-0.7-8.8
		c-1.5-8.2-4.9-15.6-10.4-22c-2.4-2.8-5.1-5.3-8.1-7.4c-0.3-0.2-0.7-0.5-0.9-0.9c-0.3-0.6-0.1-1.3,0.4-1.7c0.5-0.4,1.2-0.5,1.8,0
		c1.8,1.4,3.7,2.8,5.4,4.4c7.4,6.9,12.1,15.4,14.3,25.3C115,59.2,115.3,62.1,115.4,65.2z"/>
	<path class="st1" d="M80.9,74.8c0,0.7,0,1.3,0,2c0,0.9-0.6,1.6-1.4,1.6c-0.8,0-1.4-0.6-1.4-1.5c0-4.1-0.5-8.2-1.3-12.3
		c-1-4.9-5.1-8.4-10.1-8.5c-5-0.1-9.3,3.3-10.4,8.1c-0.2,1-0.9,1.5-1.7,1.3c-0.8-0.2-1.3-0.9-1.1-1.8c0.7-3.1,2.3-5.6,4.7-7.6
		c5.1-4.1,12.3-3.8,17.2,0.5c2.5,2.2,3.9,5,4.4,8.3C80.3,68.2,80.7,71.5,80.9,74.8z"/>
	<path class="st1" d="M57.2,76.4c-0.2,12.4-4.3,22.5-12.5,30.9c-0.4,0.4-0.8,0.8-1.2,1.1c-0.7,0.6-1.5,0.6-2.1,0
		c-0.5-0.6-0.5-1.4,0.1-2c1.8-1.7,3.4-3.5,4.9-5.5c4.2-5.8,6.8-12.2,7.6-19.3c0.4-3.3,0.3-6.5-0.1-9.8c-0.1-0.8,0.4-1.5,1.2-1.7
		c0.8-0.1,1.5,0.4,1.6,1.2C56.9,73.2,57.1,75.1,57.2,76.4z"/>
	<path class="st1" d="M17.5,66.4c0-7.7,1.8-15.1,5.3-22c0.5-0.9,1.3-1.2,2-0.8c0.7,0.4,0.9,1.2,0.5,2.1c-1.9,3.6-3.2,7.5-4,11.5
		c-1.1,5.2-1.3,10.5-0.4,15.8c0.2,1.5,0.6,3,0.9,4.5c0.2,0.8-0.1,1.3-0.7,1.7c-0.5,0.3-1.2,0.3-1.6-0.2c-0.2-0.2-0.4-0.5-0.5-0.8
		C18,74.3,17.5,70.4,17.5,66.4z"/>
	<path class="st1" d="M65.9,35.3c7.9,0.1,14.4,2.4,20.1,6.9c0.3,0.3,0.6,0.7,0.7,1.1c0.2,0.6-0.2,1.2-0.7,1.5
		c-0.5,0.3-1.1,0.2-1.7-0.2c-2.2-1.8-4.7-3.3-7.3-4.3c-7.4-2.9-14.8-2.7-22.1,0.5c-1.2,0.5-2.3-0.1-2.2-1.3c0-0.6,0.3-1,0.8-1.2
		c2.8-1.3,5.6-2.1,8.6-2.5C63.6,35.5,65.1,35.4,65.9,35.3z"/>
	<path class="st1" d="M80.5,84.6c-0.4,2.4-0.8,4.7-1.3,7.1c-1,4.7-2.6,9.2-4.6,13.6c-1.5,3.3-3.3,6.4-5.3,9.3
		c-0.4,0.6-0.9,0.9-1.6,0.7c-0.6-0.1-1-0.5-1.1-1.1c0-0.4,0.1-0.9,0.3-1.3c1.3-2.2,2.7-4.4,3.9-6.7c3.2-6.2,5.4-12.8,6.4-19.7
		c0.1-0.7,0.2-1.5,0.3-2.3c0.1-0.8,0.8-1.4,1.5-1.4C79.9,83.1,80.5,83.8,80.5,84.6z"/>
	<path class="st1" d="M104.6,76c0.1,8.1-0.9,16.2-3,24c-0.3,1.2-1.3,1.7-2.2,1.1c-0.6-0.4-0.8-1-0.6-1.8c0.5-1.9,1-3.8,1.3-5.8
		c0.5-3.1,0.9-6.2,1.3-9.3c0.5-4.2,0.4-8.4,0.2-12.7c-0.1-0.8,0.5-1.5,1.3-1.6c0.8-0.1,1.5,0.5,1.5,1.4
		C104.5,73,104.6,74.5,104.6,76z"/>
	<path class="st1" d="M33.4,76.8c-0.2,6.1-2.3,11-6.6,14.8c-0.7,0.6-1.4,0.7-2,0.3c-0.8-0.6-0.8-1.6,0-2.4c1.6-1.4,2.9-3,3.8-4.8
		c1.8-3.6,2.3-7.3,1.5-11.3c-0.3-1.7-0.5-3.5-0.6-5.3c-0.1-1,0.5-1.6,1.4-1.7c0.8,0,1.4,0.6,1.5,1.6c0.2,2,0.5,4,0.8,6
		C33.2,75,33.3,76.1,33.4,76.8z"/>
	<path class="st1" d="M48.3,111.7c-0.8-0.1-1.3-0.3-1.5-0.9c-0.2-0.6-0.1-1.1,0.3-1.6c1.6-1.8,3.2-3.6,4.6-5.6
		c2.2-3,3.9-6.3,5.3-9.8c0.3-0.7,0.8-1.1,1.5-1c0.6,0.1,1.2,0.5,1.3,1.2c0,0.3,0,0.6-0.1,0.8c-2.4,6.1-5.9,11.5-10.5,16.3
		C48.9,111.5,48.5,111.6,48.3,111.7z"/>
	<path class="st1" d="M41.8,86.4c1.1,0,1.8,1,1.4,2c-2,5-5.1,9.3-9.2,12.7c-0.7,0.6-1.6,0.5-2.1-0.1c-0.5-0.6-0.4-1.5,0.3-2.1
		c2.8-2.3,5.1-5.1,6.8-8.3c0.6-1.1,1-2.2,1.5-3.3C40.7,86.7,41.2,86.4,41.8,86.4z"/>
	<path class="st1" d="M88.7,95.6c1,0,1.7,0.9,1.4,1.9c-0.5,1.7-1,3.5-1.6,5.2c-1.1,2.9-2.3,5.7-3.5,8.6c-0.4,0.9-1.2,1.3-2,0.9
		c-0.8-0.4-1-1.2-0.5-2.1c2-4.2,3.7-8.6,4.9-13.2C87.5,96,88,95.6,88.7,95.6z"/>
</g>
</svg>
